# xmcd
#
# Track frame offsets:
#	225
#	17543
#	33988
#	51377
#
# Disc length: 901 seconds
#
# Revision: 1
# Processed by: cddbd v1.5.2PL0 Copyright (c) Steve Scherf et al.
# Submitted via: EasyCDDAExtractor 7.1.0.1
#
DISCID=2a038204
DTITLE=Bepi - Il Bepi and Gianpaolo Bellini
DYEAR=2010
DGENRE=Country
TTITLE0=Gianpaolo Bellini (il Bepi e Gianpaolo Bellini)
TTITLE1=E cante chi (Il Bepi)
TTITLE2=Gianpaolo Bellini (versiù doma müsica)
TTITLE3=E cante chi (
EXTD=
EXTT0=
EXTT1=
EXTT2=
EXTT3=
PLAYORDER=
